<?xml version="1.0" standalone="no"?><!DOCTYPE svg PUBLIC "-//W3C//DTD SVG 1.1//EN" "http://www.w3.org/Graphics/SVG/1.1/DTD/svg11.dtd"><svg t="1512970649255" class="icon" style="" viewBox="0 0 1024 1024" version="1.1" xmlns="http://www.w3.org/2000/svg" p-id="4166" xmlns:xlink="http://www.w3.org/1999/xlink" width="200" height="200"><defs><style type="text/css"></style></defs><path d="M920.837 368.038c48.007-52.465 16.143-206.005 8.131-185.043-8.011 21.082-41.2 24.094-41.2 24.094s14.034-11.023 4.999-92.461C883.792 33.129 854.577 0 854.577 0s-20.118 31.142-61.319 71.379c-41.2 40.237-108.604 44.213-108.604 44.213s3.012-11.024 6.023-29.636-3.975-39.756-3.975-39.756-9.035 13.132-57.344 44.273c-25.178 16.264-38.55 21.565-45.658 22.89a451.403 451.403 0 1 0 337.137 254.554z m-545.792 366.23h-58.067V621.93H201.085v112.279h-58.007V462.065h58.007v109.809h115.893v-109.87h58.006v272.144zM540.21 496.941c-22.709 0-40.599 8.433-53.61 25.299-13.131 16.866-19.636 38.731-19.636 65.536 0 26.504 6.385 48.128 19.154 64.934 12.77 16.805 30.299 25.178 52.526 25.178 22.708 0 40.417-8.011 53.067-24.094 12.65-16.143 18.974-37.768 18.974-64.934 0-28.37-6.144-50.778-18.432-67.222-12.288-16.445-29.636-24.697-52.043-24.697z m109.869 202.39c-24.697 26.444-56.983 39.636-96.919 39.636-38.972 0-70.656-12.83-95.051-38.43-24.335-25.54-36.503-58.489-36.503-98.786 0-42.647 12.409-77.343 37.346-104.147 24.877-26.745 57.766-40.117 98.605-40.117 38.912 0 70.175 12.95 93.968 38.852 23.672 25.901 35.538 59.15 35.538 99.75 0 42.405-12.348 76.86-36.984 103.243z m255.217-189.86h-77.704v224.737h-58.127V509.591h-77.462v-47.586h213.233v47.405z" fill="#d81e06" p-id="4167"></path></svg>