<?xml version="1.0" standalone="no"?><!DOCTYPE svg PUBLIC "-//W3C//DTD SVG 1.1//EN" "http://www.w3.org/Graphics/SVG/1.1/DTD/svg11.dtd"><svg t="1512970712034" class="icon" style="" viewBox="0 0 1024 1024" version="1.1" xmlns="http://www.w3.org/2000/svg" p-id="5681" xmlns:xlink="http://www.w3.org/1999/xlink" width="200" height="200"><defs><style type="text/css"></style></defs><path d="M448.082286 494.72l17.792 65.837714-36.425143 0 17.782857-65.837714L448.082286 494.72zM886.957714 612.48 955.392 768l-168.877714 18.514286L768 955.392l-155.52-68.388571L512 1024 411.52 886.957714 256 955.392l-18.514286-168.877714L68.608 768l68.388571-155.52L0 512l137.033143-100.48L68.608 256l168.877714-18.514286L256 68.608l155.52 68.397714L512 0l100.48 137.042286L768 68.608l18.514286 168.877714L955.392 256l-68.388571 155.52L1024 512 886.957714 612.48zM352.521143 582.957714c0-17.152-5.339429-30.848-15.963429-41.005714-10.624-10.130286-26.285714-18.541714-46.985143-25.216-12.16-5.357714-20.736-10.368-25.728-14.930286-4.982857-4.571429-7.506286-10.322286-7.506286-17.362286 0-7.597714 2.221714-13.952 6.619429-19.035429 4.388571-5.074286 10.578286-7.634286 18.514286-7.634286 9.216 0 16.301714 2.770286 21.248 8.32s7.424 13.696 7.424 24.402286l40.274286 0 0.301714-0.850286c0.374857-19.2-5.769143-34.432-18.395429-45.869714s-29.339429-17.115429-50.121143-17.115429c-19.620571 0-35.757714 5.330286-48.384 16-12.672 10.669714-18.989714 24.539429-18.989714 41.517714 0 17.106286 5.549714 30.372571 16.64 39.890286 11.090286 9.462857 27.602286 17.965714 49.572571 25.462857 11.264 4.571429 19.117714 9.270857 23.460571 14.052571 4.361143 4.763429 6.537143 11.291429 6.537143 19.584 0 7.881143-2.230857 14.208-6.701714 18.934857-4.48 4.745143-11.190857 7.113143-20.096 7.113143-10.624 0-18.605714-2.816-24.064-8.530286-5.421714-5.723429-8.155429-15.049143-8.155429-28.077714l-40.448 0-0.301714 0.868571c-0.466286 22.390857 6.482286 39.076571 20.909714 50.057143C246.610286 634.496 263.936 640 284.242286 640c20.608 0 37.12-5.074286 49.581714-15.232S352.521143 600.658286 352.521143 582.957714zM530.057143 637.019429l-60.763429-207.369143L426.331429 429.650286l-60.763429 207.369143 43.254857 0 12.077714-44.836571 53.504 0 12.196571 44.836571L530.057143 637.019429zM668.589714 605.650286l-79.872 0 0-176-41.462857 0 0 207.369143 121.334857 0L668.589714 605.650286zM813.312 605.696l-78.381714 0 0-60.251429 65.453714 0 0-31.314286-65.453714 0 0-52.992 78.089143 0 0-31.488L693.467429 429.650286l0 207.369143 119.844571 0L813.312 605.696z" p-id="5682" fill="#d81e06"></path></svg>